<?xml version="1.0" encoding="utf-8"?>
<!-- Generator: Adobe Illustrator 16.0.3, SVG Export Plug-In . SVG Version: 6.00 Build 0)  -->
<!DOCTYPE svg PUBLIC "-//W3C//DTD SVG 1.1//EN" "http://www.w3.org/Graphics/SVG/1.1/DTD/svg11.dtd">
<svg version="1.1" id="Capa_1" xmlns="http://www.w3.org/2000/svg" xmlns:xlink="http://www.w3.org/1999/xlink" x="0px" y="0px"
	 width="800px" height="750px" viewBox="0 0 800 750" enable-background="new 0 0 800 750" xml:space="preserve">
<g>
	<g>
		<g>
			<path fill="#005B70" d="M29.587,437.368c11.456,44.785,34.912,81.673,96.22,130.839c71.229,57.117,125.72,18.07,125.72,18.07
				l-73.349-215.949C53.233,311.763,18.681,394.748,29.587,437.368z M109.468,392.704c52.528-1.304,74.943,47.516,74.943,47.516
				s18.397,80.71-4.502,97.632c-22.899,16.93-81.973-39.054-102.467-63.785C56.94,449.333,56.94,394.002,109.468,392.704z"/>
			<path fill="#005063" d="M75.914,492.522c63.842,60.935,114.664,106.57,157.833,62.056l-45.193-142.317
				c0,0-30.348-44.514-97.123-41.817C24.656,373.146,35.834,454.27,75.914,492.522z M110.567,392.704
				c52.528-1.304,74.944,47.516,74.944,47.516s17.296,80.71-5.603,97.632c-22.899,16.93-80.865-39.054-101.367-63.785
				C58.047,449.333,58.047,394.002,110.567,392.704z"/>
			<path fill="#00444F" d="M173.301,410.972c-0.074-1.026-0.115-2.064-0.217-3.09c-0.129-1.243-0.319-2.479-0.496-3.723
				c-0.184-1.351-0.374-2.701-0.617-4.04c-0.198-1.107-0.436-2.2-0.674-3.294c-2.776-12.792-8.012-24.989-15.829-35.984
				c7.213,2.628,14.778,5.765,22.716,9.488l73.342,215.949c0,0-2.404,1.712-6.825,3.892c-6.031-9.568-13.406-18.561-21.413-27.034
				c-2.844-3.016-5.765-5.962-8.747-8.849c-0.013-0.015-0.034-0.026-0.048-0.048c-6.05-5.86-12.311-11.456-18.538-16.82
				c-0.136-0.116-0.265-0.231-0.4-0.348c-3.037-2.613-6.065-5.174-9.054-7.673c-0.277-0.238,0.278,0.231,0,0
				c11.946-26.844-2.092-89.178-2.092-89.178s-3.49-7.565-10.898-16.651c0.048-0.884,0.007-1.753,0.026-2.62
				C173.621,417.599,173.532,414.278,173.301,410.972z"/>
			<path fill="#00444F" d="M459.333,642.554h139.052c0,0-13.568,61.044-139.052,61.044c-130.377,0-144.469-61.044-144.469-61.044
				H459.333z"/>
			<path fill="#00627E" d="M459.001,328.001h0.332h288.273c1.119,372.207-288.273,364.574-288.273,364.574h-0.332
				c0,0-289.393,7.633-288.272-364.574H459.001z"/>
			<path fill="#FFFFFF" d="M170.721,327.994c0,65.091,132.911,117.854,286.303,117.854c153.393,0,290.582-52.764,290.582-117.854
				c0-65.083-137.189-117.849-290.582-117.849C303.632,210.145,170.721,262.911,170.721,327.994z"/>
			<path fill="#FFFFFF" d="M179.285,330.119c0,63.916,124.348,115.729,277.74,115.729c153.393,0,277.74-51.813,277.74-115.729
				c0-63.923-124.348-115.736-277.74-115.736C303.632,214.383,179.285,266.196,179.285,330.119z"/>
			<path fill="#E9E9E9" d="M179.285,330.119c0,63.916,124.348,107.249,277.74,107.249c153.393,0,277.74-43.333,277.74-107.249
				c0-63.923-124.348-119.974-277.74-119.974C303.632,210.145,179.285,266.196,179.285,330.119z"/>
			<path opacity="0.4" fill="#060B0A" d="M207.725,379.374c-13.392-10.634-22.499-22.466-26.315-35.3
				c16.699-57.804,133.685-105.801,275.615-105.801S715.94,286.27,732.646,344.074c-3.816,12.834-12.923,24.666-26.315,35.3
				c-45.214-39.598-139.81-68.181-249.307-68.181C347.529,311.193,252.932,339.776,207.725,379.374z"/>
			<path opacity="0.4" fill="#060B0A" d="M207.725,379.374c45.207-39.598,139.805-68.181,249.3-68.181
				c109.497,0,204.093,28.583,249.307,68.181c-45.214,35.889-139.81,57.994-249.307,57.994
				C347.529,437.368,252.932,415.263,207.725,379.374z"/>
			<path opacity="0.4" fill="#FFFFFF" d="M207.725,379.374c45.207-39.598,139.805-68.181,249.3-68.181
				c109.497,0,204.093,28.583,249.307,68.181c-45.214,35.889-139.81,57.994-249.307,57.994
				C347.529,437.368,252.932,415.263,207.725,379.374z"/>
			<path fill="#B5B5B5" d="M457.024,238.273c141.93,0,258.916,47.997,275.622,105.801c-3.816,12.834-12.923,24.666-26.315,35.3
				c-14.228,11.293-33.356,21.222-56.289,29.525c-49.947,18.085-117.978,28.469-193.018,28.469
				c-75.038,0-143.07-10.384-193.016-28.469c-22.933-8.304-42.056-18.232-56.284-29.525c-13.392-10.634-22.499-22.466-26.315-35.3
				C198.108,286.27,315.095,238.273,457.024,238.273z"/>
			<path fill="#005B70" d="M503.623,639.838c97.26-31.47,192.032-104.404,234.538-202.139
				c-49.703,260.905-278.828,254.876-278.828,254.876h-0.332c0,0-150.316,3.938-233.856-133.189
				C288.923,649.915,406.338,670.029,503.623,639.838z"/>
			<g>
				<g>
					<path fill="#2D0F02" d="M706.331,379.374c-14.228,11.293-33.356,21.222-56.289,29.525
						c-49.947,18.085-117.978,28.469-193.018,28.469c-75.038,0-143.07-10.384-193.016-28.469
						c-22.933-8.304-42.056-18.232-56.284-29.525c-6.946-5.515-12.706-11.355-17.208-17.48
						c33.676-49.126,140.178-87.161,266.508-87.161c126.331,0,232.832,38.035,266.508,87.161
						C719.037,368.019,713.271,373.859,706.331,379.374z"/>
				</g>
				<g>
					<path fill="#511E10" d="M556.612,305.041c0,0,238.883,47.414,55.617,97.558C612.229,402.599,724.375,347.892,556.612,305.041z"
						/>
					<path fill="#511E10" d="M565.638,405.653c0,0-171.313,21.563-256.103-3.055c-84.799-24.618-99.385-68.84,0-91.405
						C309.535,311.193,134.384,390.15,565.638,405.653z"/>
					<path fill="#511E10" d="M533.823,305.041c0,0-81.811-16.631-182.349,0H533.823z"/>
					<path fill="#511E10" d="M473.58,323.756c0,0,117.354-3.959,127.968,34.803c10.622,38.763-221.417,23.571-234.163,20.815
						c0,0,201.778,1.786,204.964-23.321C575.533,330.948,473.58,323.756,473.58,323.756z"/>
					<path fill="#511E10" d="M481.655,337.82c0,0-70.17-7.653-114.271,0c-44.105,7.654-44.603,28.514,42.892,26.043
						C410.276,363.864,279.104,344.088,481.655,337.82z"/>
				</g>
			</g>
		</g>
	</g>
</g>
</svg>
